<svg id="Capa_1" enable-background="new 0 0 511.984 511.984" height="512" viewBox="0 0 511.984 511.984" width="512" xmlns="http://www.w3.org/2000/svg"><path d="m447.636 190.095c3.264-7.159 7.281-14.063 12.035-20.619 8.467-11.68 5.854-28.072-5.825-36.541-11.682-8.47-28.072-5.855-36.54 5.826-11.939 16.469-20.66 34.464-25.987 53.6-18.658-5.292-39.309-1.676-55.34 11.505-49.423-21.173-96.812-15.934-123.586-42.709l-60.93-60.93c6.972-8.181 6.541-20.378-1.128-28.048l-12.93-12.929c-7.774-7.774-20.229-8.04-28.355-.845l-16.892-16.894c-13.249-13.247-34.809-13.247-48.059 0l-34.162 34.164c-13.25 13.25-13.25 34.809 0 48.06l16.892 16.892c-7.196 8.125-6.929 20.58.846 28.355l12.929 12.929c7.635 7.633 19.849 8.096 28.045 1.126l17.123 17.122c2.929 2.928 7.678 2.929 10.606-.001 2.929-2.929 2.929-7.678 0-10.606l-17.063-17.062 61.598-61.598 60.872 60.873c17.898 17.898 42.092 23.613 67.884 29.034l-23.367 23.367c-14.783-9.952-35.41-8.72-48.922 4.791-13.277 13.277-14.867 33.876-4.783 48.914l-23.38 23.38c-5.419-25.794-11.131-49.989-29.031-67.889l-18.088-18.088c-2.929-2.928-7.678-2.929-10.606.001-2.929 2.929-2.929 7.677 0 10.606l18.088 18.088c36.568 36.567 13.438 111.597 79.072 177.233 19.616 19.614 40.083 36.198 60.832 49.291 25.549 16.122 57.941 12.153 78.865-8.77l48.31-48.311c2.929-2.93 2.929-7.678 0-10.607-2.929-2.928-7.678-2.928-10.606 0l-48.31 48.311c-16.141 16.141-40.918 18.893-60.254 6.691-19.81-12.499-39.401-28.384-58.23-47.213-29.747-29.747-39.667-62.069-46.317-91.855l30.254-30.254c14.813 9.973 35.436 8.696 48.922-4.792 13.276-13.276 14.867-33.876 4.783-48.913l30.259-30.259c12.423 2.766 25.059 6.046 37.793 11.038-7.878 10.831-12.056 23.841-11.901 37.48.158 13.896 2.527 27.716 6.908 40.902-4.747 1.278-9.149 3.768-12.687 7.306l-37.602 37.602c-11.074 11.075-11.074 29.097 0 40.173l14.564 14.564c11.1 11.102 29.069 11.105 40.173.001 14.582-14.591 36.352-36.329 37.892-37.919 9.651 7.53 19.179 11.963 26.661 11.963 10.029 0 16.866-1.919 23.553-6.744 3.215 2.32 6.469 3.962 10.091 5.048-2.492 3.014-3.634 3.867-11.13 11.447-2.929 2.929-2.929 7.678 0 10.606 2.928 2.929 7.677 2.93 10.606.001 5.863-6.241 11.917-10.649 17.846-20.716 12.525-2.2 29.175-14.449 42.864-31.865 18.485-23.518 28.851-52.77 29.186-82.368.401-35.128-28.398-64.558-64.341-62.945zm-427.092-76.967c-7.401-7.402-7.401-19.445 0-26.847l34.162-34.162c7.401-7.401 19.445-7.401 26.846 0l16.847 16.847-61.008 61.008zm119.184-22.265c-3.243 3.243-73.449 73.449-80.44 80.44-2.227 2.23-5.85 2.229-8.078 0l-12.929-12.929c-2.227-2.227-2.227-5.85 0-8.076l80.44-80.44c2.227-2.229 5.851-2.227 8.078 0l12.929 12.929c2.232 2.229 2.232 5.845 0 8.076zm101.784 182.224c-9.264 9.264-24.259 9.266-33.524 0-9.243-9.242-9.243-24.281 0-33.524 9.19-9.188 24.169-9.341 33.531.008 9.235 9.243 9.233 24.276-.007 33.516zm187.938-125.522c3.613-4.983 10.608-6.099 15.59-2.487 4.984 3.614 6.099 10.609 2.486 15.593-7.439 10.262-13.294 21.297-17.47 32.844-4.91 1.736-9.608 4.099-13.982 7.064-2.161 1.465-4.955 1.466-7.117-.001-1.205-.817-2.437-1.585-3.688-2.31 4.793-18.116 12.905-35.15 24.181-50.703zm-115.647 235.415c-5.237 5.239-13.719 5.241-18.959-.001l-14.565-14.564c-5.227-5.228-5.227-13.733 0-18.96l37.602-37.602c2.112-2.112 4.794-3.397 7.671-3.774 6.573 14.278 15.429 27.068 25.61 37.541zm157.197-56.842c-14.205 18.072-29.241 26.492-34.931 26.492-8.529 0-11.998-1.597-16.134-4.951-4.297-3.485-10.539-3.486-14.838 0-4.136 3.354-7.604 4.951-16.134 4.951-5.69 0-20.726-8.42-34.931-26.492-9.53-12.124-25.578-37.766-25.981-73.269-.427-37.583 41.071-61.167 72.49-39.876 7.273 4.93 16.674 4.929 23.948.001 31.569-21.397 72.916 2.436 72.491 39.875-.402 35.504-16.45 61.145-25.98 73.269z"/></svg>