<?xml version="1.0" standalone="no"?>
<!DOCTYPE svg PUBLIC "-//W3C//DTD SVG 20010904//EN"
 "http://www.w3.org/TR/2001/REC-SVG-20010904/DTD/svg10.dtd">
<svg version="1.0" xmlns="http://www.w3.org/2000/svg"
 width="930.000000pt" height="1280.000000pt" viewBox="0 0 930.000000 1280.000000"
 preserveAspectRatio="xMidYMid meet">
<g transform="translate(0.000000,1280.000000) scale(0.100000,-0.100000)"
fill="#000000" stroke="none">
<path d="M5150 12652 c0 -15 11 -66 24 -112 14 -47 30 -114 35 -149 15 -94 36
-113 205 -181 108 -43 109 -46 96 -194 -14 -155 -31 -200 -172 -462 -52 -97
-65 -114 -98 -129 -21 -10 -53 -32 -71 -51 -48 -50 -64 -45 -78 24 -41 208
-235 379 -463 407 -88 11 -108 -24 -78 -135 17 -62 98 -220 164 -318 55 -82
65 -109 47 -127 -6 -6 -25 -50 -45 -100 -19 -49 -39 -91 -45 -93 -5 -2 -24 25
-42 60 -74 148 -219 327 -320 395 -25 17 -67 38 -95 46 -269 81 -288 90 -292
139 -2 27 5 51 25 85 37 64 36 127 -7 258 -49 152 -105 255 -139 255 -9 0 -29
-12 -43 -27 -63 -67 -84 -197 -49 -301 26 -77 57 -128 124 -205 75 -88 54 -90
-104 -12 -341 171 -468 251 -565 358 -78 87 -78 84 -44 156 42 89 40 125 -13
208 -24 37 -57 92 -72 121 -32 60 -50 66 -60 20 -4 -18 -22 -70 -41 -116 -37
-90 -43 -155 -20 -200 18 -34 65 -78 92 -86 12 -4 34 -25 48 -47 15 -22 54
-67 86 -99 33 -33 60 -65 60 -71 0 -7 -23 -8 -77 -2 -129 14 -193 7 -310 -30
-59 -20 -150 -43 -201 -52 -74 -14 -92 -20 -90 -33 7 -36 129 -83 328 -127
120 -26 177 -29 295 -13 24 3 24 4 -10 -122 -24 -88 -26 -108 -23 -260 4 -154
6 -171 35 -252 39 -111 100 -217 183 -319 84 -104 86 -107 77 -115 -21 -21
-698 280 -817 363 -71 50 -267 243 -289 286 -13 24 -12 38 8 124 13 54 25 137
28 184 6 98 -7 140 -75 231 -22 29 -57 85 -78 123 -65 120 -115 195 -130 195
-20 0 -30 -33 -38 -125 -4 -44 -18 -136 -31 -205 -36 -189 -40 -237 -21 -308
32 -127 95 -210 175 -232 29 -8 46 -20 62 -47 37 -59 117 -154 183 -215 72
-68 69 -75 -39 -77 -81 -2 -192 -29 -269 -66 -28 -14 -101 -62 -162 -108 -61
-46 -162 -110 -225 -142 -151 -77 -169 -90 -169 -124 0 -34 20 -53 92 -86 86
-40 185 -55 399 -62 181 -5 201 -4 265 15 38 12 98 38 133 59 74 43 222 187
296 285 28 37 55 69 62 72 16 7 264 -85 270 -100 6 -15 -100 -235 -124 -255
-12 -11 -37 -16 -78 -16 -114 1 -215 -69 -276 -190 -33 -65 -34 -70 -34 -187
0 -110 2 -126 27 -178 32 -69 98 -142 153 -171 42 -22 193 -40 347 -40 66 -1
85 4 141 31 207 102 279 360 155 555 -62 97 -148 149 -281 170 l-82 13 3 30
c5 63 25 125 53 168 36 58 52 59 190 5 299 -117 424 -163 519 -189 189 -53
374 -161 537 -313 94 -88 101 -105 95 -210 -3 -58 -9 -90 -17 -93 -7 -3 -39 8
-72 24 -93 47 -167 65 -240 59 -72 -7 -103 -21 -191 -89 -85 -64 -142 -93
-254 -124 -110 -31 -138 -47 -138 -77 0 -47 70 -133 180 -219 41 -32 81 -63
88 -69 24 -20 2 -26 -110 -32 -125 -6 -205 -26 -233 -57 -18 -20 -16 -22 97
-133 126 -123 159 -166 213 -281 83 -173 254 -269 545 -305 135 -17 140 -19
140 -40 0 -28 -103 -98 -179 -121 -128 -40 -366 -47 -646 -19 -137 14 -245 39
-433 99 l-159 52 -7 89 c-6 84 -5 90 19 128 35 53 56 124 56 196 1 126 -33
158 -253 244 -79 31 -120 54 -157 87 l-49 44 -30 -77 c-72 -185 -87 -336 -43
-426 43 -90 146 -137 304 -141 64 -2 91 -6 98 -17 13 -21 11 -85 -4 -97 -9 -8
-136 21 -457 103 -469 119 -659 170 -668 179 -3 3 -11 50 -18 103 -30 219
-101 388 -214 506 -75 81 -133 121 -285 202 -60 32 -132 70 -160 85 -159 87
-375 160 -472 160 -102 0 -97 -33 27 -206 66 -92 124 -187 170 -279 101 -205
180 -293 366 -411 49 -30 89 -61 89 -67 0 -8 -39 -14 -125 -18 -69 -3 -185
-16 -258 -29 -129 -22 -133 -22 -188 -5 -142 45 -345 -27 -442 -157 -22 -29
-68 -105 -102 -168 -62 -115 -147 -240 -162 -240 -4 0 -8 -9 -8 -20 0 -24 36
-35 89 -26 21 3 97 24 169 46 72 22 181 52 243 65 181 40 212 66 314 264 l60
116 95 13 c52 7 196 13 320 14 l225 1 204 -41 c348 -72 625 -135 844 -193 53
-14 48 -36 -10 -44 -381 -48 -586 -129 -761 -298 -107 -104 -171 -211 -190
-319 -13 -67 -2 -93 43 -108 80 -26 311 48 600 195 291 148 351 204 409 382
14 41 27 59 70 92 l53 41 139 -46 c151 -50 361 -144 370 -167 5 -13 -63 -164
-87 -193 -7 -9 -33 -14 -69 -14 -73 0 -120 -20 -180 -76 -87 -81 -136 -246
-111 -370 22 -114 83 -212 156 -252 17 -9 64 -19 105 -23 41 -4 107 -12 145
-19 65 -11 74 -11 130 10 38 15 78 41 112 73 186 176 142 509 -80 613 -29 13
-70 24 -92 24 -58 0 -69 10 -61 56 12 65 36 131 54 147 16 15 23 15 66 2 27
-8 97 -20 157 -27 174 -19 464 11 734 77 55 14 110 25 122 25 36 0 45 -52 45
-258 0 -206 -16 -333 -56 -450 -23 -69 -23 -74 -9 -131 13 -51 13 -73 3 -146
-9 -60 -17 -88 -29 -94 -25 -14 -239 -60 -353 -76 -60 -8 -181 -15 -288 -15
-167 0 -377 -10 -800 -39 -307 -21 -588 -34 -603 -28 -9 3 -39 52 -67 108 -93
184 -176 288 -295 368 -99 66 -159 87 -355 126 -383 77 -562 88 -712 45 -40
-12 -62 -38 -52 -64 3 -9 70 -63 148 -120 86 -64 184 -148 251 -216 112 -114
160 -152 244 -194 58 -30 182 -72 252 -87 30 -6 62 -16 73 -21 27 -15 5 -31
-79 -58 -80 -26 -255 -106 -324 -148 -37 -23 -62 -30 -122 -34 -162 -10 -308
-123 -368 -282 -10 -28 -30 -114 -45 -191 -14 -77 -37 -173 -51 -214 -28 -80
-27 -101 5 -101 31 0 71 23 210 120 69 48 157 105 195 126 39 20 86 50 106 65
66 52 111 165 124 320 4 42 10 81 14 86 22 35 467 213 493 197 14 -9 9 -29
-22 -77 l-30 -47 -78 0 c-68 0 -87 -4 -140 -31 -240 -120 -299 -512 -106 -705
68 -68 113 -87 234 -96 58 -4 141 -10 185 -14 67 -5 90 -3 140 15 84 30 158
84 208 152 23 32 47 58 54 58 6 1 17 -24 23 -55 10 -48 16 -58 42 -69 22 -9
41 -10 65 -3 100 27 298 184 515 406 199 205 238 278 238 451 0 48 5 64 36
110 l36 54 192 -6 c105 -3 242 -13 305 -23 141 -22 248 -11 412 42 60 19 114
34 120 32 5 -2 26 -39 47 -83 l36 -80 1 -190 0 -190 -62 -105 c-80 -137 -86
-151 -85 -240 0 -78 22 -160 62 -227 25 -42 26 -81 3 -90 -30 -12 -305 93
-407 155 -76 46 -229 167 -335 266 -61 58 -86 75 -94 67 -8 -8 8 -31 62 -85
40 -41 71 -78 67 -84 -3 -5 -39 -13 -79 -17 -64 -5 -78 -4 -108 14 -19 11 -73
27 -121 35 -183 32 -260 -11 -364 -200 -27 -50 -73 -113 -102 -143 -29 -29
-51 -55 -49 -57 2 -3 49 -16 103 -30 131 -34 306 -43 385 -21 83 25 132 65
169 141 23 46 34 84 37 133 3 37 10 73 15 79 5 7 28 15 51 18 65 10 130 -14
190 -71 57 -54 140 -110 224 -151 77 -38 72 -56 -24 -77 -113 -25 -329 -97
-428 -144 -180 -84 -275 -164 -357 -300 -28 -47 -80 -123 -115 -168 -52 -68
-69 -83 -91 -83 -47 0 -92 18 -130 51 -74 66 -105 72 -301 66 -247 -8 -423
-46 -455 -99 -24 -39 92 -134 209 -171 55 -17 93 -22 180 -21 99 0 120 4 217
37 58 20 138 52 177 71 142 72 106 23 -226 -315 -140 -142 -265 -259 -314
-294 -85 -61 -281 -165 -313 -165 -10 0 -52 22 -92 50 -67 44 -126 70 -161 70
-7 0 -52 -13 -100 -29 -49 -16 -128 -39 -178 -51 -144 -36 -153 -46 -73 -80
29 -12 85 -41 123 -65 128 -78 154 -89 225 -89 79 0 166 36 201 83 16 22 45
39 105 62 45 17 119 53 165 80 113 68 128 65 88 -13 -37 -72 -68 -165 -79
-234 -9 -54 -8 -88 6 -173 12 -77 15 -140 11 -231 -5 -132 -3 -150 17 -150 26
0 107 83 160 163 73 110 185 325 202 390 30 114 10 257 -61 419 l-35 81 24 31
c13 17 97 112 187 210 90 99 178 195 196 215 42 48 54 35 41 -46 -14 -80 8
-215 48 -298 57 -122 168 -198 262 -181 20 4 73 8 117 9 68 2 87 6 128 30 89
53 145 157 156 292 l6 69 71 41 c203 115 335 269 364 423 10 55 9 70 -17 271
-18 137 -18 135 47 146 26 4 52 -1 101 -22 110 -47 105 -39 133 -205 33 -195
41 -365 26 -573 -6 -93 -13 -194 -15 -222 -1 -31 -12 -73 -27 -102 l-25 -50
15 -203 c21 -298 4 -491 -59 -686 l-21 -63 26 -137 c14 -75 30 -166 36 -202
13 -87 13 -320 -1 -455 -9 -82 -9 -110 0 -113 6 -2 11 -16 11 -31 0 -39 -38
-171 -61 -209 -18 -32 -19 -42 -8 -190 17 -250 -1 -420 -59 -550 -19 -43 -19
-43 3 -130 70 -268 70 -395 1 -675 -58 -239 -76 -319 -89 -397 -14 -81 -14
-388 -1 -455 l9 -50 491 -3 492 -2 7 22 c4 13 9 99 12 193 6 165 -7 339 -28
395 -5 14 -16 59 -23 100 -8 41 -21 101 -30 133 -9 31 -22 81 -30 110 -62 233
-79 293 -105 374 l-30 93 15 87 c8 49 19 104 25 124 7 30 5 48 -15 100 -67
178 -90 423 -76 785 5 121 12 228 16 237 3 10 -3 27 -15 43 -29 37 -26 65 11
95 l32 26 -12 109 c-24 221 -12 426 39 681 20 101 20 101 0 160 -44 132 -71
304 -71 461 0 111 9 136 45 122 13 -5 98 -31 187 -56 200 -58 271 -63 360 -22
118 54 223 147 337 297 74 96 143 155 172 146 26 -9 23 -35 -20 -159 -42 -124
-52 -136 -104 -136 -99 0 -194 -83 -238 -207 -28 -79 -23 -231 10 -315 42
-109 148 -198 236 -199 249 -1 264 0 313 25 26 13 73 51 104 83 52 53 59 66
78 138 27 107 44 263 37 354 -7 87 -39 161 -118 267 -69 91 -250 269 -377 369
-57 45 -101 88 -101 98 -1 9 1 17 4 17 2 0 75 -31 162 -68 334 -145 503 -199
654 -209 91 -6 102 -4 212 31 63 20 123 36 132 36 41 0 135 -106 220 -250 84
-142 189 -292 240 -343 40 -40 83 -68 162 -106 59 -29 158 -88 218 -130 124
-87 154 -105 163 -97 9 10 -55 221 -102 332 -88 208 -184 318 -393 447 -163
100 -229 134 -303 157 -82 24 -72 39 49 72 261 69 424 75 545 19 76 -35 230
-123 319 -184 l59 -39 23 22 c21 20 30 21 82 15 68 -7 180 13 241 44 22 11 69
44 103 73 34 29 105 87 158 128 53 42 97 83 99 92 4 21 -55 36 -187 47 -260
24 -568 -45 -615 -137 -7 -15 -17 -42 -21 -59 -3 -18 -11 -33 -17 -33 -5 0
-40 18 -76 40 -74 43 -157 75 -226 85 -61 9 -142 -5 -476 -86 -419 -101 -529
-115 -671 -89 -190 34 -186 65 16 110 220 49 293 115 443 397 54 102 59 108
87 106 17 -1 59 -4 95 -6 36 -3 83 -10 105 -16 59 -16 98 -13 162 10 98 37
183 136 212 247 14 52 30 53 85 9 48 -39 318 -202 456 -275 158 -84 351 -138
399 -112 12 6 21 20 21 32 0 12 -40 82 -89 157 -99 152 -135 219 -180 338 -58
148 -184 292 -348 398 -103 66 -93 71 120 78 100 3 217 11 260 18 68 11 81 11
111 -4 124 -59 340 -5 449 112 23 25 76 101 117 168 40 68 100 155 132 194 32
39 58 75 58 80 0 4 -10 13 -21 20 -25 13 -81 4 -254 -41 -60 -16 -163 -38
-227 -49 -182 -30 -228 -65 -333 -256 l-57 -104 -46 -8 c-94 -15 -480 -8 -582
11 -106 19 -479 113 -725 182 -387 109 -422 127 -277 139 288 23 489 81 643
186 176 118 309 306 309 434 0 101 -155 93 -469 -26 -58 -22 -109 -35 -113
-31 -5 5 -4 30 3 56 6 26 9 81 7 124 -11 189 -152 334 -341 351 l-72 6 1 56
c1 66 35 145 87 202 l35 38 267 -8 267 -8 32 -81 c104 -257 228 -406 410 -494
146 -71 625 -180 790 -180 143 0 224 35 193 84 -8 12 -58 58 -113 104 -131
109 -193 170 -271 267 -115 142 -238 223 -443 291 -96 32 -117 51 -70 65 153
44 251 79 330 117 86 41 104 46 190 52 118 7 203 43 286 122 73 68 105 134
148 300 19 74 50 174 69 223 19 49 32 95 29 103 -11 29 -79 5 -214 -76 -73
-44 -178 -102 -234 -130 -55 -28 -115 -63 -133 -78 -56 -47 -105 -170 -126
-316 -4 -26 -12 -54 -19 -62 -23 -30 -311 -129 -486 -166 -118 -25 -276 -36
-725 -50 -538 -18 -595 -10 -425 54 246 94 433 217 552 365 109 135 171 287
172 424 1 75 0 80 -28 104 -23 19 -37 24 -62 20 -115 -19 -408 -227 -652 -464
-111 -108 -147 -174 -164 -309 -11 -88 -37 -146 -82 -183 -28 -24 -338 8 -531
54 -166 40 -442 -16 -760 -153 -45 -20 -74 -27 -81 -21 -15 12 -49 107 -69
189 -21 89 -33 433 -16 454 7 8 18 13 25 10 9 -4 13 15 13 73 0 54 11 128 38
243 43 187 42 216 -17 299 l-31 44 30 27 c56 50 213 98 411 126 190 26 247 23
392 -25 69 -22 135 -47 145 -56 19 -14 18 -17 -40 -66 -141 -122 -364 -371
-537 -600 -105 -139 -151 -218 -146 -252 5 -35 78 -34 222 3 222 57 244 66
311 135 93 94 170 254 234 490 35 126 78 225 99 225 7 0 76 -32 153 -71 107
-54 145 -79 166 -107 15 -20 44 -55 65 -77 36 -38 38 -45 49 -140 6 -55 12
-102 14 -104 2 -2 12 -1 21 3 15 6 16 17 10 86 l-6 80 82 2 c46 1 94 1 108 0
127 -9 173 -3 236 28 77 38 145 110 176 188 17 44 22 78 23 147 0 82 -3 96
-33 157 -64 130 -187 208 -328 208 l-54 0 0 43 c0 59 17 111 47 147 22 26 30
30 57 25 50 -11 106 -48 207 -137 243 -216 265 -228 435 -228 102 0 200 -11
309 -35 11 -2 27 0 34 5 12 7 2 29 -49 115 -155 255 -276 357 -460 386 -91 14
-301 17 -352 5 -63 -14 -48 17 65 128 170 168 261 230 368 247 56 9 270 -1
345 -17 29 -6 33 -3 43 27 9 27 24 41 68 64 32 17 84 57 116 89 51 51 72 86
154 255 150 310 151 311 42 266 -155 -65 -341 -199 -440 -318 -74 -88 -99
-142 -99 -211 l0 -54 -112 -4 c-168 -6 -176 -11 -508 -331 -107 -103 -204
-196 -215 -206 -11 -10 -36 -35 -55 -56 -48 -51 -135 -117 -195 -147 -73 -37
-163 -64 -175 -52 -14 14 35 78 109 142 73 64 152 179 180 264 33 101 69 290
86 463 8 88 20 194 25 235 5 41 7 77 4 79 -17 18 -155 -103 -258 -228 -164
-199 -211 -306 -300 -697 -37 -158 -46 -187 -75 -223 l-34 -42 22 -16 c17 -12
20 -18 10 -29 -6 -8 -20 -14 -31 -14 -11 0 -112 -21 -226 -47 -194 -43 -217
-46 -367 -49 -185 -2 -292 -22 -432 -78 -132 -52 -132 -52 -77 56 19 39 42 99
49 135 15 73 23 87 133 243 103 145 146 231 172 345 12 50 28 97 36 105 12 12
38 14 127 12 106 -3 115 -1 172 26 70 34 146 111 178 180 18 39 22 65 22 157
0 106 -1 112 -34 173 -63 116 -163 180 -300 191 l-76 6 2 54 c3 56 18 117 36
139 6 7 35 12 76 12 103 0 309 27 386 51 111 33 195 84 302 178 197 176 287
285 295 357 3 26 0 29 -27 32 -17 2 -92 -19 -175 -49 -80 -28 -203 -64 -275
-80 -153 -34 -294 -98 -392 -178 -34 -28 -66 -51 -70 -51 -4 0 -7 69 -6 152 1
133 4 158 22 193 25 47 26 68 6 126 -28 77 -73 112 -231 179 -54 23 -126 57
-160 76 -77 43 -104 44 -104 6z m-1617 -854 c62 -28 179 -85 261 -126 82 -40
197 -94 255 -118 180 -77 279 -138 387 -240 64 -61 91 -104 108 -172 26 -102
25 -102 -77 -32 -144 96 -230 115 -347 77 -47 -16 -113 -28 -177 -32 -80 -6
-103 -11 -103 -22 0 -27 107 -128 187 -175 93 -56 185 -82 263 -75 30 2 113
24 184 48 l129 42 19 -22 c22 -28 23 -47 2 -119 -20 -69 -29 -82 -61 -82 -49
0 -63 -16 -63 -73 0 -60 -25 -266 -41 -347 -19 -94 -48 -162 -68 -158 -10 2
-48 38 -85 81 -91 104 -190 188 -267 226 -51 25 -85 33 -166 41 -144 13 -328
58 -345 83 -3 6 -9 34 -13 64 -5 41 -2 67 14 112 55 159 51 236 -25 472 -70
216 -150 395 -215 478 -11 13 -19 27 -19 31 0 10 122 90 138 90 7 0 64 -23
125 -52z m1390 -599 c93 -28 132 -63 123 -111 -9 -51 -98 -153 -159 -184 -29
-14 -77 -46 -109 -70 -59 -46 -78 -53 -78 -30 0 8 11 71 25 140 34 172 76 276
111 276 9 0 48 -10 87 -21z m11 -605 c3 -9 6 -41 6 -72 0 -31 11 -120 25 -196
29 -160 31 -253 10 -346 -24 -100 -35 -130 -51 -130 -17 0 -18 31 -2 115 10
59 10 65 -15 116 -27 53 -27 54 -27 291 l0 238 24 0 c13 0 27 -7 30 -16z
m1418 -701 c-17 -32 -36 -88 -42 -126 -8 -42 -17 -67 -25 -67 -7 0 -48 18 -91
39 -78 39 -264 103 -336 116 -42 8 -51 32 -15 39 12 3 82 10 155 16 124 10
350 45 361 56 3 2 9 0 14 -5 7 -7 -1 -30 -21 -68z m-1944 -540 c38 -95 59
-303 31 -303 -6 0 -34 21 -62 46 -28 25 -93 66 -144 90 -51 25 -93 49 -93 53
0 5 28 23 63 39 34 17 85 46 112 65 61 44 79 45 93 10z m1932 -979 c239 -3
439 -9 443 -14 8 -7 -98 -235 -124 -266 -7 -9 -32 -14 -70 -14 -125 0 -236
-78 -297 -207 -24 -53 -27 -69 -27 -173 0 -110 1 -118 33 -182 64 -130 186
-209 303 -195 51 6 119 -8 119 -24 0 -6 -11 -27 -25 -47 -14 -20 -37 -67 -51
-104 -21 -56 -34 -73 -75 -104 -39 -29 -56 -35 -79 -31 -54 11 -285 107 -365
153 -201 113 -275 134 -497 141 -171 6 -345 -7 -528 -38 -63 -11 -124 -21
-135 -22 -18 -2 -21 7 -29 76 -5 45 -5 82 0 87 5 5 46 -3 94 -17 217 -66 589
-29 815 82 82 40 105 67 80 95 -10 11 -54 38 -99 61 -122 63 -193 117 -289
223 -68 73 -103 103 -150 126 -87 42 -198 62 -332 58 l-110 -3 -3 65 c-4 90 2
107 46 126 130 56 347 113 527 138 153 22 186 24 295 20 52 -2 291 -7 530 -10z
m-670 -1209 c118 -17 247 -44 270 -55 10 -5 22 -45 34 -109 l19 -100 -24 -53
c-21 -47 -23 -68 -24 -193 0 -133 1 -143 27 -191 39 -74 82 -106 251 -188 122
-59 162 -84 202 -125 33 -33 52 -46 56 -38 18 32 41 196 46 322 5 122 3 151
-16 224 -12 48 -35 106 -53 134 -59 92 -184 147 -334 147 -81 0 -85 1 -94 26
-13 32 -13 114 -1 114 5 0 63 -20 128 -44 65 -24 251 -85 413 -136 726 -224
845 -262 852 -269 4 -3 -20 -63 -55 -131 l-62 -125 -76 -5 c-92 -7 -154 -39
-204 -108 -56 -76 -77 -143 -83 -264 l-4 -106 -77 -27 c-224 -80 -316 -162
-512 -455 -76 -114 -113 -159 -131 -160 -4 0 -19 -5 -33 -10 -26 -10 -27 -11
-11 -35 22 -33 20 -38 -11 -32 -71 14 -559 178 -599 202 -177 104 -410 194
-579 223 -94 17 -100 20 -103 43 -2 20 7 32 43 58 25 18 62 58 83 89 36 55 42
59 197 137 141 70 168 88 230 150 75 74 138 181 170 285 25 82 31 296 11 389
-17 79 -51 161 -68 161 -14 0 -246 -228 -364 -359 -52 -57 -104 -121 -115
-143 -28 -56 -46 -149 -59 -313 -12 -158 -28 -223 -66 -279 -24 -34 -28 -37
-42 -23 -12 13 -16 51 -20 192 -5 198 5 296 49 478 35 141 35 142 9 200 -12
26 -30 81 -41 124 l-20 78 20 75 c11 41 23 92 26 113 10 62 78 102 215 128 66
12 409 2 530 -16z m-2512 -157 c-3 -7 -63 -42 -134 -78 -281 -142 -443 -288
-543 -488 -18 -35 -37 -62 -43 -60 -6 2 -19 31 -28 64 -23 85 -55 140 -111
196 -65 65 -140 99 -238 107 l-76 6 -3 40 c-3 55 24 107 63 117 66 16 547 69
840 92 232 18 278 19 273 4z m4336 -440 c3 -18 8 -60 11 -93 3 -33 8 -77 12
-98 l6 -39 -59 7 c-97 10 -104 13 -104 39 0 13 9 53 20 89 34 111 103 168 114
95z m-3494 -827 c0 -5 -29 -32 -63 -60 -90 -71 -190 -180 -218 -237 -22 -46
-24 -58 -21 -186 2 -97 0 -138 -9 -144 -7 -4 -16 1 -22 12 -5 10 -36 45 -67
76 -66 64 -135 92 -218 86 l-47 -3 -3 79 -3 79 53 51 c83 81 248 190 348 232
45 19 74 23 163 24 59 0 107 -4 107 -9z m1066 -247 c100 -29 337 -121 429
-166 77 -38 180 -117 292 -223 98 -94 98 -98 4 -108 -135 -14 -453 -112 -703
-217 -81 -34 -153 -58 -159 -54 -7 4 -9 25 -5 58 5 42 2 59 -19 100 l-25 49 0
300 0 300 48 -7 c27 -3 89 -18 138 -32z m-1764 -99 c9 -10 -12 -89 -29 -107
-20 -22 -62 -24 -69 -3 -4 9 11 35 36 65 41 49 51 56 62 45z m2850 -657 c183
-201 218 -247 218 -294 0 -22 -26 -16 -44 10 -58 90 -162 149 -265 150 l-66 1
1 71 c2 70 31 164 52 164 5 0 52 -46 104 -102z"/>
</g>
</svg>
